<svg width="20" height="21" viewBox="0 0 20 21" fill="none" xmlns="http://www.w3.org/2000/svg">
<path d="M10 3.19461L5.06295 8.9075C4.65046 9.38481 3.9148 9.4493 3.41981 9.05154C2.92482 8.65378 2.85795 7.9444 3.27044 7.46709L9.10375 0.717108C9.57017 0.177386 10.4298 0.177386 10.8963 0.717108L16.7296 7.46709C17.1421 7.9444 17.0752 8.65378 16.5802 9.05154C16.0852 9.4493 15.3495 9.38481 14.9371 8.9075L10 3.19461Z" fill="#9999EE"/>
<path d="M0.0910756 9.71601C-0.217015 9.05499 0.294302 8.31232 1.05749 8.31232H18.9425C19.7057 8.31232 20.217 9.05493 19.909 9.71594L15.8049 18.5232C15.2981 19.6106 14.161 20.3123 12.9055 20.3123H7.09532C5.83992 20.3123 4.70288 19.6107 4.19608 18.5234L0.0910756 9.71601Z" fill="#E9E9FF"/>
<path fill-rule="evenodd" clip-rule="evenodd" d="M10 17.3123C11.6569 17.3123 13 16.193 13 14.8123C13 13.4316 11.6569 12.3123 10 12.3123C8.34315 12.3123 7 13.4316 7 14.8123C7 16.193 8.34315 17.3123 10 17.3123Z" fill="#9999EE"/>
</svg>
