<svg width="12" height="9" viewBox="0 0 12 9" fill="none" xmlns="http://www.w3.org/2000/svg">
<path d="M11.7311 1.68232C12.1079 1.27857 12.0861 0.645779 11.6823 0.268945C11.2786 -0.107889 10.6458 -0.0860689 10.2689 0.317682L11.7311 1.68232ZM1.75926 4.34921C1.39983 3.92988 0.768534 3.88132 0.349209 4.24074C-0.0701172 4.60017 -0.118679 5.23147 0.240743 5.65079L1.75926 4.34921ZM10.2689 0.317682L4.03172 7.00042L5.49383 8.36506L11.7311 1.68232L10.2689 0.317682ZM4.03172 7.00042L1.75926 4.34921L0.240743 5.65079L2.51321 8.302L4.03172 7.00042ZM4.03172 7.00042L4.03172 7.00042L2.51321 8.302C3.28927 9.20741 4.68017 9.23683 5.49383 8.36506L4.03172 7.00042Z" fill="white"/>
</svg>
