<svg width="400" height="204" viewBox="0 0 400 204" fill="none" xmlns="http://www.w3.org/2000/svg">
<rect width="400" height="204" rx="4" fill="#F7F8FD"/>
<rect x="143.75" y="44" width="112.5" height="89.9996" rx="6" fill="#E1E2F7"/>
<path fill-rule="evenodd" clip-rule="evenodd" d="M155 133.999L191.562 83.3745L228.125 133.999H155Z" fill="white" fill-opacity="0.5"/>
<path fill-rule="evenodd" clip-rule="evenodd" d="M194.374 134L219.686 100.25L244.999 134H194.374Z" fill="#CFD0E5"/>
<path fill-rule="evenodd" clip-rule="evenodd" d="M236.561 77.7504C241.221 77.7504 244.999 73.9728 244.999 69.313C244.999 64.6531 241.221 60.8755 236.561 60.8755C231.902 60.8755 228.124 64.6531 228.124 69.313C228.124 73.9728 231.902 77.7504 236.561 77.7504Z" fill="#F0F0FB"/>
<path d="M114.777 161.135C113.867 161.135 113.052 161.02 112.332 160.79C111.622 160.55 111.032 160.225 110.562 159.815L111.087 158.645C111.567 159.035 112.097 159.33 112.677 159.53C113.257 159.73 113.927 159.83 114.687 159.83C115.637 159.83 116.332 159.675 116.772 159.365C117.222 159.055 117.447 158.59 117.447 157.97C117.447 157.39 117.257 156.96 116.877 156.68C116.497 156.4 115.917 156.26 115.137 156.26H112.467V155.015H114.912C115.662 155.015 116.227 154.875 116.607 154.595C116.997 154.305 117.192 153.885 117.192 153.335C117.192 152.795 116.987 152.37 116.577 152.06C116.167 151.75 115.542 151.595 114.702 151.595C114.062 151.595 113.457 151.69 112.887 151.88C112.317 152.07 111.802 152.355 111.342 152.735L110.802 151.565C111.272 151.155 111.862 150.84 112.572 150.62C113.292 150.4 114.042 150.29 114.822 150.29C116.112 150.29 117.082 150.55 117.732 151.07C118.392 151.59 118.722 152.285 118.722 153.155C118.722 153.805 118.527 154.355 118.137 154.805C117.747 155.245 117.217 155.54 116.547 155.69V155.465C117.297 155.575 117.887 155.855 118.317 156.305C118.757 156.755 118.977 157.345 118.977 158.075C118.977 158.705 118.822 159.25 118.512 159.71C118.202 160.17 117.737 160.525 117.117 160.775C116.497 161.015 115.717 161.135 114.777 161.135ZM123.858 161.135C123.188 161.135 122.603 160.98 122.103 160.67C121.603 160.36 121.213 159.91 120.933 159.32C120.663 158.73 120.528 158.03 120.528 157.22C120.528 156.4 120.663 155.7 120.933 155.12C121.213 154.54 121.603 154.095 122.103 153.785C122.603 153.465 123.188 153.305 123.858 153.305C124.518 153.305 125.093 153.47 125.583 153.8C126.073 154.13 126.398 154.58 126.558 155.15H126.393L126.543 153.44H128.013C127.983 153.75 127.953 154.06 127.923 154.37C127.903 154.67 127.893 154.965 127.893 155.255V161H126.378V159.32H126.543C126.383 159.88 126.053 160.325 125.553 160.655C125.063 160.975 124.498 161.135 123.858 161.135ZM124.233 159.95C124.883 159.95 125.403 159.72 125.793 159.26C126.193 158.8 126.393 158.12 126.393 157.22C126.393 156.32 126.193 155.645 125.793 155.195C125.403 154.735 124.883 154.505 124.233 154.505C123.573 154.505 123.043 154.735 122.643 155.195C122.253 155.645 122.058 156.32 122.058 157.22C122.058 158.12 122.253 158.8 122.643 159.26C123.033 159.72 123.563 159.95 124.233 159.95ZM130.22 161V153.44H135.665V154.655H131.735V161H130.22ZM137.106 164.24V155.255C137.106 154.965 137.091 154.67 137.061 154.37C137.041 154.06 137.016 153.75 136.986 153.44H138.456L138.606 155.15H138.441C138.601 154.58 138.921 154.13 139.401 153.8C139.891 153.47 140.471 153.305 141.141 153.305C141.811 153.305 142.396 153.465 142.896 153.785C143.396 154.095 143.781 154.54 144.051 155.12C144.331 155.7 144.471 156.4 144.471 157.22C144.471 158.03 144.331 158.73 144.051 159.32C143.781 159.91 143.396 160.36 142.896 160.67C142.396 160.98 141.811 161.135 141.141 161.135C140.481 161.135 139.906 160.975 139.416 160.655C138.936 160.325 138.616 159.88 138.456 159.32H138.621V164.24H137.106ZM140.766 159.95C141.426 159.95 141.951 159.72 142.341 159.26C142.741 158.8 142.941 158.12 142.941 157.22C142.941 156.32 142.741 155.645 142.341 155.195C141.951 154.735 141.426 154.505 140.766 154.505C140.106 154.505 139.576 154.735 139.176 155.195C138.786 155.645 138.591 156.32 138.591 157.22C138.591 158.12 138.786 158.8 139.176 159.26C139.576 159.72 140.106 159.95 140.766 159.95ZM146.095 164.405L145.735 163.175C146.205 163.075 146.595 162.955 146.905 162.815C147.225 162.675 147.49 162.49 147.7 162.26C147.91 162.04 148.09 161.755 148.24 161.405L148.615 160.52L148.585 161.135L145.3 153.44H146.92L149.47 159.74H149.065L151.615 153.44H153.175L149.71 161.54C149.49 162.04 149.255 162.46 149.005 162.8C148.755 163.14 148.485 163.415 148.195 163.625C147.905 163.835 147.585 164 147.235 164.12C146.885 164.24 146.505 164.335 146.095 164.405ZM157.058 161.135C156.398 161.135 155.778 161.055 155.198 160.895C154.618 160.725 154.143 160.485 153.773 160.175L154.238 159.155C154.608 159.445 155.033 159.665 155.513 159.815C155.993 159.955 156.508 160.025 157.058 160.025C157.748 160.025 158.248 159.925 158.558 159.725C158.878 159.515 159.038 159.22 159.038 158.84C159.038 158.47 158.908 158.19 158.648 158C158.388 157.81 158.008 157.715 157.508 157.715H155.648V156.635H157.358C157.808 156.635 158.158 156.54 158.408 156.35C158.658 156.16 158.783 155.895 158.783 155.555C158.783 155.195 158.638 154.915 158.348 154.715C158.058 154.515 157.608 154.415 156.998 154.415C156.478 154.415 156.003 154.48 155.573 154.61C155.143 154.74 154.733 154.935 154.343 155.195L153.893 154.22C154.303 153.91 154.788 153.68 155.348 153.53C155.908 153.38 156.513 153.305 157.163 153.305C158.143 153.305 158.888 153.49 159.398 153.86C159.908 154.22 160.163 154.74 160.163 155.42C160.163 155.89 160.003 156.29 159.683 156.62C159.373 156.95 158.953 157.15 158.423 157.22V157.025C159.033 157.055 159.518 157.24 159.878 157.58C160.248 157.91 160.433 158.35 160.433 158.9C160.433 159.58 160.143 160.125 159.563 160.535C158.993 160.935 158.158 161.135 157.058 161.135ZM162.197 161V153.44H163.577V159.545H163.157L167.717 153.44H168.977V161H167.612V154.88H168.047L163.457 161H162.197ZM172.87 161V154.655H170.2V153.44H177.055V154.655H174.37V161H172.87ZM178.266 161V153.44H179.766V156.08H181.911C182.901 156.08 183.646 156.29 184.146 156.71C184.646 157.12 184.896 157.72 184.896 158.51C184.896 159.02 184.781 159.465 184.551 159.845C184.321 160.215 183.981 160.5 183.531 160.7C183.091 160.9 182.551 161 181.911 161H178.266ZM179.766 159.965H181.746C182.306 159.965 182.736 159.85 183.036 159.62C183.336 159.38 183.486 159.015 183.486 158.525C183.486 158.035 183.336 157.68 183.036 157.46C182.746 157.23 182.316 157.115 181.746 157.115H179.766V159.965ZM190.6 161V153.44H191.98V159.545H191.56L196.12 153.44H197.38V161H196.015V154.88H196.45L191.86 161H190.6ZM202.278 161.135C201.618 161.135 200.998 161.055 200.418 160.895C199.838 160.725 199.363 160.485 198.993 160.175L199.458 159.155C199.828 159.445 200.253 159.665 200.733 159.815C201.213 159.955 201.728 160.025 202.278 160.025C202.968 160.025 203.468 159.925 203.778 159.725C204.098 159.515 204.258 159.22 204.258 158.84C204.258 158.47 204.128 158.19 203.868 158C203.608 157.81 203.228 157.715 202.728 157.715H200.868V156.635H202.578C203.028 156.635 203.378 156.54 203.628 156.35C203.878 156.16 204.003 155.895 204.003 155.555C204.003 155.195 203.858 154.915 203.568 154.715C203.278 154.515 202.828 154.415 202.218 154.415C201.698 154.415 201.223 154.48 200.793 154.61C200.363 154.74 199.953 154.935 199.563 155.195L199.113 154.22C199.523 153.91 200.008 153.68 200.568 153.53C201.128 153.38 201.733 153.305 202.383 153.305C203.363 153.305 204.108 153.49 204.618 153.86C205.128 154.22 205.383 154.74 205.383 155.42C205.383 155.89 205.223 156.29 204.903 156.62C204.593 156.95 204.173 157.15 203.643 157.22V157.025C204.253 157.055 204.738 157.24 205.098 157.58C205.468 157.91 205.653 158.35 205.653 158.9C205.653 159.58 205.363 160.125 204.783 160.535C204.213 160.935 203.378 161.135 202.278 161.135ZM210.717 161.135C209.967 161.135 209.317 160.98 208.767 160.67C208.217 160.35 207.792 159.9 207.492 159.32C207.192 158.73 207.042 158.03 207.042 157.22C207.042 156.41 207.192 155.715 207.492 155.135C207.792 154.545 208.217 154.095 208.767 153.785C209.317 153.465 209.967 153.305 210.717 153.305C211.467 153.305 212.117 153.465 212.667 153.785C213.227 154.095 213.657 154.545 213.957 155.135C214.267 155.715 214.422 156.41 214.422 157.22C214.422 158.03 214.267 158.73 213.957 159.32C213.657 159.9 213.227 160.35 212.667 160.67C212.117 160.98 211.467 161.135 210.717 161.135ZM210.717 159.95C211.377 159.95 211.902 159.72 212.292 159.26C212.682 158.8 212.877 158.12 212.877 157.22C212.877 156.32 212.682 155.645 212.292 155.195C211.902 154.735 211.377 154.505 210.717 154.505C210.067 154.505 209.547 154.735 209.157 155.195C208.767 155.645 208.572 156.32 208.572 157.22C208.572 158.12 208.762 158.8 209.142 159.26C209.532 159.72 210.057 159.95 210.717 159.95ZM219.654 161.135C218.514 161.135 217.604 160.78 216.924 160.07C216.254 159.36 215.919 158.315 215.919 156.935V155.63C215.919 154.22 216.219 153.085 216.819 152.225C217.429 151.365 218.369 150.785 219.639 150.485L222.399 149.825L222.834 151.04L219.744 151.76C219.204 151.88 218.759 152.105 218.409 152.435C218.059 152.765 217.794 153.155 217.614 153.605C217.444 154.055 217.359 154.535 217.359 155.045V155.735H217.134C217.254 155.275 217.444 154.885 217.704 154.565C217.974 154.235 218.304 153.98 218.694 153.8C219.094 153.61 219.539 153.515 220.029 153.515C220.679 153.515 221.249 153.665 221.739 153.965C222.229 154.265 222.609 154.7 222.879 155.27C223.159 155.83 223.299 156.495 223.299 157.265C223.299 158.065 223.149 158.755 222.849 159.335C222.549 159.915 222.124 160.36 221.574 160.67C221.034 160.98 220.394 161.135 219.654 161.135ZM219.609 159.965C220.289 159.965 220.819 159.745 221.199 159.305C221.589 158.855 221.784 158.195 221.784 157.325C221.784 156.465 221.589 155.81 221.199 155.36C220.809 154.91 220.279 154.685 219.609 154.685C218.939 154.685 218.409 154.91 218.019 155.36C217.629 155.8 217.434 156.43 217.434 157.25C217.434 158.15 217.624 158.83 218.004 159.29C218.394 159.74 218.929 159.965 219.609 159.965ZM225.245 164.24V155.255C225.245 154.965 225.23 154.67 225.2 154.37C225.18 154.06 225.155 153.75 225.125 153.44H226.595L226.745 155.15H226.58C226.74 154.58 227.06 154.13 227.54 153.8C228.03 153.47 228.61 153.305 229.28 153.305C229.95 153.305 230.535 153.465 231.035 153.785C231.535 154.095 231.92 154.54 232.19 155.12C232.47 155.7 232.61 156.4 232.61 157.22C232.61 158.03 232.47 158.73 232.19 159.32C231.92 159.91 231.535 160.36 231.035 160.67C230.535 160.98 229.95 161.135 229.28 161.135C228.62 161.135 228.045 160.975 227.555 160.655C227.075 160.325 226.755 159.88 226.595 159.32H226.76V164.24H225.245ZM228.905 159.95C229.565 159.95 230.09 159.72 230.48 159.26C230.88 158.8 231.08 158.12 231.08 157.22C231.08 156.32 230.88 155.645 230.48 155.195C230.09 154.735 229.565 154.505 228.905 154.505C228.245 154.505 227.715 154.735 227.315 155.195C226.925 155.645 226.73 156.32 226.73 157.22C226.73 158.12 226.925 158.8 227.315 159.26C227.715 159.72 228.245 159.95 228.905 159.95ZM237.457 161.135C236.787 161.135 236.202 160.98 235.702 160.67C235.202 160.36 234.812 159.91 234.532 159.32C234.262 158.73 234.127 158.03 234.127 157.22C234.127 156.4 234.262 155.7 234.532 155.12C234.812 154.54 235.202 154.095 235.702 153.785C236.202 153.465 236.787 153.305 237.457 153.305C238.117 153.305 238.692 153.47 239.182 153.8C239.672 154.13 239.997 154.58 240.157 155.15H239.992L240.142 153.44H241.612C241.582 153.75 241.552 154.06 241.522 154.37C241.502 154.67 241.492 154.965 241.492 155.255V161H239.977V159.32H240.142C239.982 159.88 239.652 160.325 239.152 160.655C238.662 160.975 238.097 161.135 237.457 161.135ZM237.832 159.95C238.482 159.95 239.002 159.72 239.392 159.26C239.792 158.8 239.992 158.12 239.992 157.22C239.992 156.32 239.792 155.645 239.392 155.195C239.002 154.735 238.482 154.505 237.832 154.505C237.172 154.505 236.642 154.735 236.242 155.195C235.852 155.645 235.657 156.32 235.657 157.22C235.657 158.12 235.852 158.8 236.242 159.26C236.632 159.72 237.162 159.95 237.832 159.95ZM242.648 161L244.223 158.27C244.443 157.91 244.648 157.62 244.838 157.4C245.028 157.18 245.228 157.015 245.438 156.905C245.658 156.785 245.913 156.71 246.203 156.68L245.858 157.16L243.008 153.44H244.658L247.043 156.53H248.138V153.44H249.638V156.53H250.718L253.088 153.44H254.738L251.888 157.16L251.543 156.68C251.823 156.71 252.073 156.785 252.293 156.905C252.513 157.015 252.718 157.18 252.908 157.4C253.108 157.62 253.313 157.91 253.523 158.27L255.098 161H253.478L252.143 158.69C251.993 158.43 251.843 158.23 251.693 158.09C251.553 157.94 251.393 157.84 251.213 157.79C251.033 157.73 250.813 157.7 250.553 157.7H249.638V161H248.138V157.7H247.193C246.933 157.7 246.713 157.73 246.533 157.79C246.363 157.84 246.208 157.94 246.068 158.09C245.928 158.23 245.778 158.43 245.618 158.69L244.283 161H242.648ZM259.766 161.135C258.546 161.135 257.586 160.79 256.886 160.1C256.186 159.41 255.836 158.455 255.836 157.235C255.836 156.445 255.986 155.755 256.286 155.165C256.596 154.575 257.021 154.12 257.561 153.8C258.111 153.47 258.746 153.305 259.466 153.305C260.176 153.305 260.771 153.455 261.251 153.755C261.731 154.055 262.096 154.48 262.346 155.03C262.596 155.57 262.721 156.21 262.721 156.95V157.43H257.021V156.56H261.686L261.431 156.755C261.431 156.005 261.261 155.425 260.921 155.015C260.591 154.595 260.111 154.385 259.481 154.385C258.781 154.385 258.241 154.63 257.861 155.12C257.481 155.6 257.291 156.265 257.291 157.115V157.265C257.291 158.155 257.506 158.825 257.936 159.275C258.376 159.725 258.996 159.95 259.796 159.95C260.236 159.95 260.646 159.89 261.026 159.77C261.416 159.64 261.786 159.43 262.136 159.14L262.631 160.175C262.281 160.485 261.856 160.725 261.356 160.895C260.856 161.055 260.326 161.135 259.766 161.135ZM264.575 161V153.44H266.075V156.515H269.9V153.44H271.4V161H269.9V157.7H266.075V161H264.575ZM273.686 161V153.44H275.066V159.545H274.646L279.206 153.44H280.466V161H279.101V154.88H279.536L274.946 161H273.686ZM286.294 161.135C285.074 161.135 284.114 160.79 283.414 160.1C282.714 159.41 282.364 158.455 282.364 157.235C282.364 156.445 282.514 155.755 282.814 155.165C283.124 154.575 283.549 154.12 284.089 153.8C284.639 153.47 285.274 153.305 285.994 153.305C286.704 153.305 287.299 153.455 287.779 153.755C288.259 154.055 288.624 154.48 288.874 155.03C289.124 155.57 289.249 156.21 289.249 156.95V157.43H283.549V156.56H288.214L287.959 156.755C287.959 156.005 287.789 155.425 287.449 155.015C287.119 154.595 286.639 154.385 286.009 154.385C285.309 154.385 284.769 154.63 284.389 155.12C284.009 155.6 283.819 156.265 283.819 157.115V157.265C283.819 158.155 284.034 158.825 284.464 159.275C284.904 159.725 285.524 159.95 286.324 159.95C286.764 159.95 287.174 159.89 287.554 159.77C287.944 159.64 288.314 159.43 288.664 159.14L289.159 160.175C288.809 160.485 288.384 160.725 287.884 160.895C287.384 161.055 286.854 161.135 286.294 161.135Z" fill="#A4A4BA"/>
</svg>
