<svg width="15" height="15" viewBox="0 0 15 15" fill="none" xmlns="http://www.w3.org/2000/svg">
<rect width="15" height="15" rx="7.5" fill="#E8E8F1"/>
<path fill-rule="evenodd" clip-rule="evenodd" d="M7.5 4.00321C6.67157 4.00321 6 4.67695 6 5.50804V6.51125C6 6.78828 5.77614 7.01286 5.5 7.01286C5.22386 7.01286 5 6.78828 5 6.51125V5.50804C5 4.12289 6.11929 3 7.5 3H7.81007C9.01954 3 10 3.98361 10 5.19697V5.47535C10 6.31395 9.43416 7.0462 8.62462 7.25522C8.25697 7.35014 8 7.68269 8 8.06353V8.54601C8 8.82304 7.77614 9.04762 7.5 9.04762C7.22386 9.04762 7 8.82304 7 8.54601V8.06353C7 7.22493 7.56584 6.49267 8.37538 6.28366C8.74303 6.18874 9 5.85619 9 5.47535V5.19697C9 4.53768 8.46725 4.00321 7.81007 4.00321H7.5ZM7.50867 9.99357C7.78481 9.99357 8.00867 10.2181 8.00867 10.4952V11.4984C8.00867 11.7754 7.78481 12 7.50867 12C7.23252 12 7.00867 11.7754 7.00867 11.4984V10.4952C7.00867 10.2181 7.23252 9.99357 7.50867 9.99357Z" fill="#A4A4BA"/>
</svg>
