<svg width="20" height="21" viewBox="0 0 20 21" fill="none" xmlns="http://www.w3.org/2000/svg">
<g clip-path="url(#clip0_171_7551)">
<circle cx="10" cy="7.31232" r="3" fill="#E9E9FF"/>
<path d="M5 17.3123C5 14.5509 7.23858 12.3123 10 12.3123C12.7614 12.3123 15 14.5509 15 17.3123V18.1456C15 18.79 14.4777 19.3123 13.8333 19.3123H6.16667C5.52233 19.3123 5 18.79 5 18.1456V17.3123Z" fill="#E9E9FF"/>
<path fill-rule="evenodd" clip-rule="evenodd" d="M10 20.3123C15.5228 20.3123 20 15.8352 20 10.3123C20 4.78947 15.5228 0.312317 10 0.312317C4.47715 0.312317 0 4.78947 0 10.3123C0 15.8352 4.47715 20.3123 10 20.3123ZM10 18.3123C14.4183 18.3123 18 14.7306 18 10.3123C18 5.89404 14.4183 2.31232 10 2.31232C5.58172 2.31232 2 5.89404 2 10.3123C2 14.7306 5.58172 18.3123 10 18.3123Z" fill="#9999EE"/>
</g>
<defs>
<clipPath id="clip0_171_7551">
<rect width="20" height="20" fill="white" transform="translate(0 0.312317)"/>
</clipPath>
</defs>
</svg>
