<svg width="20" height="21" viewBox="0 0 20 21" fill="none" xmlns="http://www.w3.org/2000/svg">
<g clip-path="url(#clip0_171_7535)">
<path d="M16.2354 10.3123L13.2354 15.5085L16.492 17.006C17.4304 17.4375 18.5431 17.0834 19.0596 16.1889L19.7367 15.016C20.2532 14.1215 20.0035 12.9808 19.1605 12.3839L16.2354 10.3123Z" fill="#E9E9FF"/>
<path d="M3.79517 10.3123L6.79517 15.5085L3.53856 17.006C2.6001 17.4375 1.48741 17.0834 0.97095 16.1889L0.293824 15.016C-0.222635 14.1215 0.027055 12.9808 0.87 12.3839L3.79517 10.3123Z" fill="#E9E9FF"/>
<path d="M7 5.31232H13L12.6801 2.11332C12.5779 1.09091 11.7175 0.312325 10.69 0.312325H9.30998C8.28247 0.312325 7.42214 1.09091 7.3199 2.11332L7 5.31232Z" fill="#E9E9FF"/>
<path d="M7 15.3123H13L12.6801 18.5113C12.5779 19.5337 11.7175 20.3123 10.69 20.3123H9.30998C8.28247 20.3123 7.42214 19.5337 7.3199 18.5113L7 15.3123Z" fill="#E9E9FF"/>
<path d="M6.77283 5.08856L3.77283 10.2847L0.868913 8.22627C0.0265109 7.62913 -0.222827 6.48886 0.293462 5.59462L0.971401 4.42039C1.48769 3.52615 2.59986 3.17195 3.5382 3.60292L6.77283 5.08856Z" fill="#E9E9FF"/>
<path d="M13.2578 5.08856L16.2578 10.2847L19.1617 8.22627C20.0041 7.62913 20.2535 6.48886 19.7372 5.59462L19.0592 4.42039C18.5429 3.52615 17.4308 3.17195 16.4924 3.60292L13.2578 5.08856Z" fill="#E9E9FF"/>
<circle cx="10" cy="10.3123" r="7" fill="#E9E9FF"/>
<circle cx="10" cy="10.3123" r="4" fill="#9999EE"/>
</g>
<defs>
<clipPath id="clip0_171_7535">
<rect width="20" height="20" fill="white" transform="translate(0 0.312325)"/>
</clipPath>
</defs>
</svg>
